# xmcd
#
# Track frame offsets: 
#        150
#        20175
#        39387
#        51987
#        75000
#        88500
#        99812
#        120437
#        142687
#        158550
#        172175
#        182987
#
# Disc length: 2652 seconds
#
# Revision: 1
# Processed by: cddbd v1.5.2PL0 Copyright (c) Steve Scherf et al.
# Submitted via: ExactAudioCopyFreeDBPlugin 1.0
#
DISCID=870a5a0c
DTITLE=小鹿 - 台灣無言歌
DYEAR=1900
DGENRE=
TTITLE0=思想起
TTITLE1=安平追想曲
TTITLE2=草螟弄雞公
TTITLE3=你是我的生命
TTITLE4=六月苿莉
TTITLE5=快樂的出帆
TTITLE6=三聲無奈
TTITLE7=望你早歸
TTITLE8=丟丟咚
TTITLE9=一隻鳥仔哮救救
TTITLE10=駛犁歌
TTITLE11=雨夜花
EXTD=
EXTT0=
EXTT1=
EXTT2=
EXTT3=
EXTT4=
EXTT5=
EXTT6=
EXTT7=
EXTT8=
EXTT9=
EXTT10=
EXTT11=
PLAYORDER=
